<?xml version="1.0" encoding="UTF-8"?>
<svg version="1.1" xmlns="http://www.w3.org/2000/svg" width="500" height="500">
<path d="M0 0 C0.77943466 0.00222061 1.55886932 0.00444122 2.36192322 0.00672913 C3.68317955 0.00684242 3.68317955 0.00684242 5.03112793 0.00695801 C5.98841293 0.01211929 6.94569794 0.01728058 7.93199158 0.02259827 C9.39480812 0.02472069 9.39480812 0.02472069 10.88717651 0.02688599 C14.01542675 0.03250319 17.14360656 0.04505859 20.27183533 0.05775452 C22.38706867 0.0627673 24.50230313 0.06733059 26.61753845 0.07142639 C31.81482829 0.0824782 37.01207678 0.09923305 42.20933533 0.12025452 C41.44275636 4.97429036 40.25125019 8.68130916 38.20933533 13.12025452 C39.26121033 12.99650452 39.26121033 12.99650452 40.33433533 12.87025452 C44.13882859 13.20108002 46.19010799 14.87338766 49.20933533 17.12025452 C49.53933533 15.80025452 49.86933533 14.48025452 50.20933533 13.12025452 C57.46933533 13.12025452 64.72933533 13.12025452 72.20933533 13.12025452 C72.20933533 32.26025452 72.20933533 51.40025452 72.20933533 71.12025452 C65.27933533 71.12025452 58.34933533 71.12025452 51.20933533 71.12025452 C50.54933533 69.80025452 49.88933533 68.48025452 49.20933533 67.12025452 C48.30183533 67.75962952 47.39433533 68.39900452 46.45933533 69.05775452 C40.8891207 72.59269841 35.34071965 73.00804776 28.90074158 71.62416077 C22.1264825 69.60216438 17.98626162 66.81102862 14.02183533 60.80775452 C12.04203944 57.0469707 10.61484402 53.12595429 9.20933533 49.12025452 C8.66664001 49.55337952 8.1239447 49.98650452 7.56480408 50.43275452 C6.84937439 50.98962952 6.1339447 51.54650452 5.39683533 52.12025452 C4.68914001 52.67712952 3.9814447 53.23400452 3.25230408 53.80775452 C1.20933533 55.12025452 1.20933533 55.12025452 -1.79066467 55.12025452 C-2.68874998 52.04258933 -2.91715298 49.29338078 -2.9200592 46.09217834 C-2.92321136 45.09467056 -2.92636353 44.09716278 -2.92961121 43.06942749 C-2.92758698 41.99952072 -2.92556274 40.92961395 -2.92347717 39.82728577 C-2.9244339 38.72551498 -2.92539063 37.6237442 -2.92637634 36.48858643 C-2.92705635 34.16276492 -2.92521456 31.83694151 -2.92103577 29.51112366 C-2.91566974 25.93612962 -2.92099469 22.36126035 -2.92738342 18.78627014 C-2.92672291 16.5291084 -2.9254423 14.27194675 -2.92347717 12.01478577 C-2.9255014 10.9388063 -2.92752563 9.86282684 -2.92961121 8.75424194 C-2.92645905 7.76619064 -2.92330688 6.77813934 -2.9200592 5.76014709 C-2.91926361 4.8861879 -2.91846802 4.0122287 -2.91764832 3.11178589 C-2.75417414 0.54795995 -2.57129241 0.17267863 0 0 Z M33.04917908 36.26869202 C31.21361815 40.31546356 31.59322476 44.31931594 33.02183533 48.49525452 C34.2847861 50.41936615 34.2847861 50.41936615 37.20933533 52.12025452 C42.71238958 52.68994093 42.71238958 52.68994093 47.64683533 50.68275452 C49.9156296 46.96193191 50.42602242 43.45399641 50.20933533 39.12025452 C48.85846852 36.09688594 47.53348138 34.44440057 45.20933533 32.12025452 C39.66997471 31.39378099 36.54455961 31.30219174 33.04917908 36.26869202 Z " fill="#0F2387" transform="translate(224.79066467285156,219.87974548339844)"/>
<path d="M0 0 C0.495 0.495 0.495 0.495 1 1 C0.51281777 8.42952907 -1.14845159 14.59380635 -3 22 C-24.78 22 -46.56 22 -69 22 C-68.96039853 33.47353412 -68.96039853 33.47353412 -68.90991211 44.94702148 C-68.90699289 46.38004482 -68.90444434 47.81306898 -68.90234375 49.24609375 C-68.89722778 49.99669067 -68.89211182 50.7472876 -68.88684082 51.52062988 C-68.88653008 53.34747601 -68.93768887 55.17421683 -69 57 C-70 58 -70 58 -71.94946289 58.11352539 C-73.1984436 58.10567017 -73.1984436 58.10567017 -74.47265625 58.09765625 C-75.37177734 58.09443359 -76.27089844 58.09121094 -77.19726562 58.08789062 C-78.61555664 58.07532227 -78.61555664 58.07532227 -80.0625 58.0625 C-81.01189453 58.05798828 -81.96128906 58.05347656 -82.93945312 58.04882812 C-85.29303065 58.0370011 -87.64648477 58.02052025 -90 58 C-90.33 57.34 -90.66 56.68 -91 56 C-90.54197998 54.66751221 -90.54197998 54.66751221 -90.07470703 53.30810547 C-88.8994283 49.69042561 -88.77111178 46.86436871 -88.8046875 43.0703125 C-88.81113281 41.78125 -88.81757813 40.4921875 -88.82421875 39.1640625 C-88.84092537 37.81770558 -88.85785521 36.47135141 -88.875 35.125 C-88.88504336 33.75521483 -88.89416683 32.38542258 -88.90234375 31.015625 C-88.92585588 27.67690244 -88.9587207 24.33854239 -89 21 C-92.63 21 -96.26 21 -100 21 C-95.19353151 11.38706302 -82.17061187 7.57666255 -72.52807617 4.30688477 C-49.38230661 -3.18048573 -23.96521452 -4.05585678 0 0 Z " fill="#01CB2B" transform="translate(277,183)"/>
<path d="M0 0 C2.70552388 2.19823815 4.44778333 3.89556667 6 7 C6.07065617 9.04055005 6.08421976 11.08334257 6.0625 13.125 C6.05347656 14.22070312 6.04445313 15.31640625 6.03515625 16.4453125 C6.02355469 17.28835937 6.01195312 18.13140625 6 19 C6.72445312 18.96519531 7.44890625 18.93039063 8.1953125 18.89453125 C14.99122988 18.70424556 19.55360173 19.0131215 24.875 23.625 C26.64435979 27.36031511 26.5431358 30.94458605 26 35 C24.37599816 38.63467079 23.33886956 39.77408696 20 42 C17.61322924 42.29452584 15.21373906 42.4928217 12.8125 42.625 C11.54019531 42.69976562 10.26789063 42.77453125 8.95703125 42.8515625 C7.98121094 42.90054688 7.00539063 42.94953125 6 43 C5.98582031 43.86882812 5.97164063 44.73765625 5.95703125 45.6328125 C5.51828384 56.23389852 5.51828384 56.23389852 2.9375 59.75 C-1.0154037 62.77775603 -3.03000557 63 -8 63 C-12.51106078 61.97475891 -14.4279321 59.76624228 -17 56 C-18.00496852 52.98509443 -18.10335303 50.95818308 -18.0625 47.8125 C-18.05347656 46.91144531 -18.04445313 46.01039063 -18.03515625 45.08203125 C-18.02355469 44.39496094 -18.01195312 43.70789063 -18 43 C-18.64066406 43.03480469 -19.28132813 43.06960937 -19.94140625 43.10546875 C-25.78875256 43.28847065 -29.95559288 43.08841252 -35 40 C-37.73856604 36.0246622 -38.6983356 32.78858699 -38 28 C-35.96006092 24.3421782 -34.49580738 22.33053826 -31 20 C-25.88370904 19.07739015 -22.13787559 19.02519622 -17 20 C-17.05800781 19.05898437 -17.11601562 18.11796875 -17.17578125 17.1484375 C-17.59031242 5.70737733 -17.59031242 5.70737733 -14.6875 2.1875 C-9.98275287 -1.64194534 -5.67400472 -1.48320474 0 0 Z " fill="#05CA2E" transform="translate(329,175)"/>
<path d="M0 0 C0.77943466 0.00222061 1.55886932 0.00444122 2.36192322 0.00672913 C3.68317955 0.00684242 3.68317955 0.00684242 5.03112793 0.00695801 C5.98841293 0.01211929 6.94569794 0.01728058 7.93199158 0.02259827 C9.39480812 0.02472069 9.39480812 0.02472069 10.88717651 0.02688599 C14.01542675 0.03250319 17.14360656 0.04505859 20.27183533 0.05775452 C22.38706867 0.0627673 24.50230313 0.06733059 26.61753845 0.07142639 C31.81482829 0.0824782 37.01207678 0.09923305 42.20933533 0.12025452 C40.76160479 9.7900019 40.76160479 9.7900019 37.20933533 13.12025452 C34.43938548 13.94691142 31.76278816 14.31679305 28.89683533 14.67884827 C22.48032264 15.73272317 18.94540667 20.24260582 15.20933533 25.12025452 C13.24390097 28.06840605 12.94206638 28.85417487 12.71714783 32.17494202 C12.65140564 32.95482483 12.58566345 33.73470764 12.51792908 34.53822327 C12.39615596 36.16791031 12.28149659 37.7981455 12.17417908 39.42884827 C11.7308142 44.50663093 10.9992913 47.41405448 7.20933533 51.12025452 C1.91203803 55.12025452 1.91203803 55.12025452 -1.79066467 55.12025452 C-2.68874998 52.04258933 -2.91715298 49.29338078 -2.9200592 46.09217834 C-2.92321136 45.09467056 -2.92636353 44.09716278 -2.92961121 43.06942749 C-2.92758698 41.99952072 -2.92556274 40.92961395 -2.92347717 39.82728577 C-2.9244339 38.72551498 -2.92539063 37.6237442 -2.92637634 36.48858643 C-2.92705635 34.16276492 -2.92521456 31.83694151 -2.92103577 29.51112366 C-2.91566974 25.93612962 -2.92099469 22.36126035 -2.92738342 18.78627014 C-2.92672291 16.5291084 -2.9254423 14.27194675 -2.92347717 12.01478577 C-2.9255014 10.9388063 -2.92752563 9.86282684 -2.92961121 8.75424194 C-2.92645905 7.76619064 -2.92330688 6.77813934 -2.9200592 5.76014709 C-2.91926361 4.8861879 -2.91846802 4.0122287 -2.91764832 3.11178589 C-2.75417414 0.54795995 -2.57129241 0.17267863 0 0 Z " fill="#02CB2C" transform="translate(224.79066467285156,219.87974548339844)"/>
<path d="M0 0 C0.99128906 -0.00257813 1.98257813 -0.00515625 3.00390625 -0.0078125 C5.4375 0.125 5.4375 0.125 6.4375 1.125 C7.51362052 14.4441966 7.51362052 14.4441966 4.75 18.8125 C0.97409164 22.58840836 -2.8163022 25.02564407 -8.26171875 25.22265625 C-9.24785156 25.21105469 -10.23398438 25.19945312 -11.25 25.1875 C-12.24386719 25.17847656 -13.23773438 25.16945312 -14.26171875 25.16015625 C-15.40060547 25.14275391 -15.40060547 25.14275391 -16.5625 25.125 C-16.51023307 29.60508719 -16.41505998 34.08330418 -16.3125 38.5625 C-16.29832031 39.82255859 -16.28414062 41.08261719 -16.26953125 42.38085938 C-16.04796456 50.86686357 -15.44643434 58.34065372 -9.125 64.5 C-7.35683205 65.62127724 -5.56288256 66.70255674 -3.75 67.75 C-3.028125 68.20375 -2.30625 68.6575 -1.5625 69.125 C-1.5625 69.785 -1.5625 70.445 -1.5625 71.125 C-11.15691508 70.65579589 -20.2041621 69.18305771 -29.5625 67.125 C-31.0139188 51.83672202 -26.42037042 34.69325975 -19.5625 21.125 C-19.25376953 20.51011719 -18.94503906 19.89523438 -18.62695312 19.26171875 C-8.87218741 -0.02313478 -8.87218741 -0.02313478 0 0 Z " fill="#22983A" transform="translate(167.5625,217.875)"/>
<path d="M0 0 C7.59 0 15.18 0 23 0 C23 14.52 23 29.04 23 44 C15.41 44 7.82 44 0 44 C0 29.48 0 14.96 0 0 Z " fill="#102389" transform="translate(311,246)"/>
<path d="M0 0 C1.33278992 0.00303635 1.33278992 0.00303635 2.69250488 0.00613403 C3.5987561 0.00517731 4.50500732 0.00422058 5.4387207 0.00323486 C7.35876535 0.002553 9.27881229 0.00440771 11.19885254 0.00857544 C14.14861192 0.01392361 17.09821902 0.00863066 20.04797363 0.00222778 C21.90865105 0.00288856 23.76932838 0.00416972 25.63000488 0.00613403 C26.51853149 0.0041098 27.40705811 0.00208557 28.32250977 0 C34.546305 0.02399665 34.546305 0.02399665 35.66125488 1.13894653 C35.74901093 3.2845348 35.76820707 5.43299075 35.75891113 7.58035278 C35.75568848 8.88552856 35.75246582 10.19070435 35.74914551 11.53543091 C35.74078889 12.92410343 35.73232393 14.31277531 35.72375488 15.70144653 C35.71874154 17.09402309 35.71417835 18.48660135 35.71008301 19.87918091 C35.69824922 23.29914524 35.68176368 26.71902497 35.66125488 30.13894653 C30.39273741 32.22525601 25.40562348 33.7854549 19.84875488 34.88894653 C17.92096191 35.28339966 17.92096191 35.28339966 15.95422363 35.68582153 C12.66125488 36.13894653 12.66125488 36.13894653 9.66125488 35.13894653 C12.01402757 32.41468342 14.28621819 31.32477024 17.66125488 30.13894653 C17.66125488 29.47894653 17.66125488 28.81894653 17.66125488 28.13894653 C18.32125488 28.13894653 18.98125488 28.13894653 19.66125488 28.13894653 C20.98125488 22.85894653 22.30125488 17.57894653 23.66125488 12.13894653 C18.71125488 12.13894653 13.76125488 12.13894653 8.66125488 12.13894653 C8.66125488 14.11894653 8.66125488 16.09894653 8.66125488 18.13894653 C7.09875488 20.51394653 7.09875488 20.51394653 4.66125488 22.13894653 C1.16125488 22.70144653 1.16125488 22.70144653 -2.33874512 22.13894653 C-6.21656197 18.4652253 -7.23953575 15.36532154 -7.47155762 10.15847778 C-7.46897949 9.10015747 -7.46640137 8.04183716 -7.46374512 6.95144653 C-7.46632324 5.88539185 -7.46890137 4.81933716 -7.47155762 3.72097778 C-7.2148684 -1.26936252 -4.32094601 0.01665997 0 0 Z " fill="#04C029" transform="translate(172.3387451171875,252.86105346679688)"/>
<path d="M0 0 C0.495 0.495 0.495 0.495 1 1 C0.51281777 8.42952907 -1.14845159 14.59380635 -3 22 C-24.78 22 -46.56 22 -69 22 C-68.96039853 33.47353412 -68.96039853 33.47353412 -68.90991211 44.94702148 C-68.90699289 46.38004482 -68.90444434 47.81306898 -68.90234375 49.24609375 C-68.89722778 49.99669067 -68.89211182 50.7472876 -68.88684082 51.52062988 C-68.88653008 53.34747601 -68.93768887 55.17421683 -69 57 C-70 58 -70 58 -71.94946289 58.11352539 C-73.1984436 58.10567017 -73.1984436 58.10567017 -74.47265625 58.09765625 C-75.37177734 58.09443359 -76.27089844 58.09121094 -77.19726562 58.08789062 C-78.61555664 58.07532227 -78.61555664 58.07532227 -80.0625 58.0625 C-81.01189453 58.05798828 -81.96128906 58.05347656 -82.93945312 58.04882812 C-85.29303065 58.0370011 -87.64648477 58.02052025 -90 58 C-90.33 57.34 -90.66 56.68 -91 56 C-90.54197998 54.66751221 -90.54197998 54.66751221 -90.07470703 53.30810547 C-88.8994283 49.69042561 -88.77111178 46.86436871 -88.8046875 43.0703125 C-88.81113281 41.78125 -88.81757813 40.4921875 -88.82421875 39.1640625 C-88.84092537 37.81770558 -88.85785521 36.47135141 -88.875 35.125 C-88.88504336 33.75521483 -88.89416683 32.38542258 -88.90234375 31.015625 C-88.92585588 27.67690244 -88.9587207 24.33854239 -89 21 C-92.63 21 -96.26 21 -100 21 C-95.19353151 11.38706302 -82.17061187 7.57666255 -72.52807617 4.30688477 C-49.38230661 -3.18048573 -23.96521452 -4.05585678 0 0 Z M-39 1 C-42.42792492 1.25898279 -45.84994315 1.44241155 -49.28320312 1.60546875 C-53.27142972 1.74031487 -53.27142972 1.74031487 -57 3 C-60.04838667 3.27632858 -63.09654869 3.44658298 -66.15234375 3.62109375 C-69.19729591 3.81367373 -69.19729591 3.81367373 -72 6 C-72.680625 6.33 -73.36125 6.66 -74.0625 7 C-76.16194362 7.95925017 -76.16194362 7.95925017 -78 10 C-78.825 10.12375 -79.65 10.2475 -80.5 10.375 C-83.16470196 10.73647686 -83.16470196 10.73647686 -84.3125 13.0625 C-84.539375 13.701875 -84.76625 14.34125 -85 15 C-85.66 15 -86.32 15 -87 15 C-87.99 17.475 -87.99 17.475 -89 20 C-88.34 20.33 -87.68 20.66 -87 21 C-86.9752364 25.34163015 -86.95710985 29.6832226 -86.94506836 34.02490234 C-86.94004712 35.50114661 -86.93322884 36.97738592 -86.92456055 38.45361328 C-86.91239811 40.57846298 -86.90674954 42.70324678 -86.90234375 44.828125 C-86.89710693 46.1059082 -86.89187012 47.38369141 -86.88647461 48.70019531 C-87 52 -87 52 -88 56 C-82.72 56 -77.44 56 -72 56 C-71.67 43.79 -71.34 31.58 -71 19 C-63.88824219 19.03480469 -63.88824219 19.03480469 -56.6328125 19.0703125 C-53.63410913 19.08052825 -50.63542713 19.09015593 -47.63671875 19.09765625 C-42.87414103 19.10962465 -38.11164 19.12380251 -33.34912109 19.15087891 C-29.51066114 19.17256585 -25.67228341 19.18455982 -21.83376694 19.18975449 C-20.36729513 19.19345773 -18.90082795 19.200689 -17.43439102 19.21146011 C-15.38470894 19.22592019 -13.33536918 19.22798029 -11.28564453 19.22705078 C-10.11760284 19.231492 -8.94956116 19.23593323 -7.74612427 19.24050903 C-4.85526578 19.28374392 -4.85526578 19.28374392 -3 17 C-2.12168119 13.39889288 -1.9564069 9.97027189 -1.9765625 6.28515625 C-1.98163818 5.0787146 -1.98163818 5.0787146 -1.98681641 3.84790039 C-1.99116699 3.23809326 -1.99551758 2.62828613 -2 2 C-20.63222846 -1.03201024 -20.63222846 -1.03201024 -39 1 Z " fill="#199831" transform="translate(277,183)"/>
<path d="M0 0 C1.09570312 0.00902344 2.19140625 0.01804688 3.3203125 0.02734375 C4.16335938 0.03894531 5.00640625 0.05054688 5.875 0.0625 C6.21208908 2.14522894 6.54453116 4.22871037 6.875 6.3125 C7.060625 7.47265625 7.24625 8.6328125 7.4375 9.828125 C7.875 13.0625 7.875 13.0625 7.875 17.0625 C9.0815625 17.495625 9.0815625 17.495625 10.3125 17.9375 C12.875 19.0625 12.875 19.0625 13.875 21.0625 C16.92081269 21.53204261 16.92081269 21.53204261 20.4375 21.6875 C22.23380859 21.79964844 22.23380859 21.79964844 24.06640625 21.9140625 C24.99324219 21.96304688 25.92007813 22.01203125 26.875 22.0625 C26.98341951 23.97791138 27.06078079 25.89509773 27.125 27.8125 C27.17140625 28.87984375 27.2178125 29.9471875 27.265625 31.046875 C26.875 34.0625 26.875 34.0625 25.125 36.40625 C22.75092579 38.15383241 21.52398475 38.61923435 18.625 38.8125 C17.3875 38.895 16.15 38.9775 14.875 39.0625 C14.875 38.4025 14.875 37.7425 14.875 37.0625 C13.39 36.5675 13.39 36.5675 11.875 36.0625 C11.875 35.4025 11.875 34.7425 11.875 34.0625 C10.39 33.5675 10.39 33.5675 8.875 33.0625 C8.545 29.1025 8.215 25.1425 7.875 21.0625 C1.95204464 19.21980278 -4.0137076 18.1013092 -10.125 17.0625 C-10.125 16.4025 -10.125 15.7425 -10.125 15.0625 C-10.785 14.7325 -11.445 14.4025 -12.125 14.0625 C-12.41071429 6.63392857 -12.41071429 6.63392857 -10.125 3.0625 C-9.465 3.0625 -8.805 3.0625 -8.125 3.0625 C-8.125 2.4025 -8.125 1.7425 -8.125 1.0625 C-5.36047967 -0.31976016 -3.0788637 -0.03275387 0 0 Z " fill="#03CB2C" transform="translate(305.125,196.9375)"/>
<path d="M0 0 C2.39774745 -0.13572155 4.78775245 -0.23436868 7.1875 -0.3125 C8.19780273 -0.3753418 8.19780273 -0.3753418 9.22851562 -0.43945312 C12.97372488 -0.53079969 14.85865316 -0.096711 17.96875 2.03125 C20.48569062 5.70985553 20.57924351 8.52408511 20.3125 12.8125 C20.28994141 13.50537109 20.26738281 14.19824219 20.24414062 14.91210938 C20.18562661 16.60901573 20.0959548 18.30479861 20 20 C17.77191841 20.10853983 15.54230068 20.18583307 13.3125 20.25 C12.07113281 20.29640625 10.82976562 20.3428125 9.55078125 20.390625 C5.4303313 19.93733018 3.89212108 18.89748679 1 16 C-0.50156874 12.99686252 -0.09281204 10.20932478 -0.0625 6.875 C-0.05347656 5.59367188 -0.04445313 4.31234375 -0.03515625 2.9921875 C-0.02355469 2.00476563 -0.01195312 1.01734375 0 0 Z " fill="#0F2389" transform="translate(313,196)"/>
<path d="M0 0 C0.97839844 0.13921875 0.97839844 0.13921875 1.9765625 0.28125 C2.23371806 7.51017855 2.11314214 13.07638053 -2.0234375 19.28125 C-5.85109625 21.30568598 -9.0504156 21.50043729 -13.3359375 21.40625 C-14.40457031 21.38820312 -15.47320312 21.37015625 -16.57421875 21.3515625 C-17.38246094 21.32835937 -18.19070312 21.30515625 -19.0234375 21.28125 C-18.6934375 18.64125 -18.3634375 16.00125 -18.0234375 13.28125 C-17.3634375 13.28125 -16.7034375 13.28125 -16.0234375 13.28125 C-15.8171875 12.62125 -15.6109375 11.96125 -15.3984375 11.28125 C-11.77646373 3.37876177 -9.21657062 -0.76125067 0 0 Z " fill="#04CA2C" transform="translate(170.0234375,219.71875)"/>
<path d="M0 0 C2.70552388 2.19823815 4.44778333 3.89556667 6 7 C6.07065617 9.04055005 6.08421976 11.08334257 6.0625 13.125 C6.05347656 14.22070312 6.04445313 15.31640625 6.03515625 16.4453125 C6.02355469 17.28835937 6.01195312 18.13140625 6 19 C6.72445312 18.96519531 7.44890625 18.93039063 8.1953125 18.89453125 C14.99122988 18.70424556 19.55360173 19.0131215 24.875 23.625 C26.62316445 27.3155694 26.2316324 30.98503847 26 35 C25.67 35 25.34 35 25 35 C25 32.36 25 29.72 25 27 C24.34 27 23.68 27 23 27 C22.505 26.01 22.505 26.01 22 25 C21.01 24.67 20.02 24.34 19 24 C19 23.34 19 22.68 19 22 C14.05 21.67 9.1 21.34 4 21 C4 16.05 4 11.1 4 6 C3.34 6 2.68 6 2 6 C1.34 5.01 0.68 4.02 0 3 C-2.6556728 2.41651248 -2.6556728 2.41651248 -5.625 2.3125 C-6.62789063 2.24675781 -7.63078125 2.18101562 -8.6640625 2.11328125 C-9.43492187 2.07589844 -10.20578125 2.03851563 -11 2 C-11 2.99 -11 3.98 -11 5 C-11.66 5 -12.32 5 -13 5 C-13.66 9.62 -14.32 14.24 -15 19 C-12.97875 18.896875 -10.9575 18.79375 -8.875 18.6875 C-1.50625 18.64732143 -1.50625 18.64732143 1.8125 21.5 C2.534375 22.325 3.25625 23.15 4 24 C3.67 24.66 3.34 25.32 3 26 C2.49984375 25.35546875 1.9996875 24.7109375 1.484375 24.046875 C-1.79043567 21.34876055 -4.67878271 21.33465669 -8.75 21.25 C-9.44738281 21.22035156 -10.14476562 21.19070312 -10.86328125 21.16015625 C-12.57490813 21.08981542 -14.28745815 21.04260054 -16 21 C-16 25.62 -16 30.24 -16 35 C-16.33 35 -16.66 35 -17 35 C-17.495 28.565 -17.495 28.565 -18 22 C-22.62 22.33 -27.24 22.66 -32 23 C-32 23.66 -32 24.32 -32 25 C-32.66 25.33 -33.32 25.66 -34 26 C-34.93548664 29.3677519 -35.09947301 32.5184446 -35 36 C-35.99 36.495 -35.99 36.495 -37 37 C-37.98864315 32.16424546 -38.54740921 29.0752681 -36.25 24.5625 C-32.82168824 20.65803383 -30.3152835 19.73078642 -25.23046875 19.05078125 C-22.39862773 18.98630851 -19.77654246 19.47320949 -17 20 C-17.05800781 19.05898437 -17.11601562 18.11796875 -17.17578125 17.1484375 C-17.59031242 5.70737733 -17.59031242 5.70737733 -14.6875 2.1875 C-9.98275287 -1.64194534 -5.67400472 -1.48320474 0 0 Z " fill="#17A647" transform="translate(329,175)"/>
<path d="M0 0 C0.99 0 1.98 0 3 0 C3.01458252 0.77077881 3.02916504 1.54155762 3.04418945 2.33569336 C3.11923166 5.87010173 3.21570647 9.40362307 3.3125 12.9375 C3.33505859 14.14986328 3.35761719 15.36222656 3.38085938 16.61132812 C3.59155294 23.67913954 4.35590615 29.42875336 7 36 C5.66870117 37.5090332 5.66870117 37.5090332 4 39 C1.30078125 38.85546875 1.30078125 38.85546875 -1.6875 38.1875 C-2.68136719 37.97480469 -3.67523438 37.76210938 -4.69921875 37.54296875 C-5.45847656 37.36378906 -6.21773437 37.18460937 -7 37 C-6.42953482 31.48550324 -5.75259325 25.99280745 -5 20.5 C-4.835 19.2934375 -4.67 18.086875 -4.5 16.84375 C-4 14 -4 14 -3 13 C-2.71602148 10.19176801 -2.55153335 7.38353365 -2.37890625 4.56640625 C-2 2 -2 2 0 0 Z " fill="#04C92C" transform="translate(146,246)"/>
<path d="M0 0 C1.76949095 -0.10815225 3.54087487 -0.18566083 5.3125 -0.25 C6.29863281 -0.29640625 7.28476562 -0.3428125 8.30078125 -0.390625 C11 0 11 0 12.84375 1.5625 C14.42762369 4.90147697 14.28963827 7.57302218 14.1875 11.25 C14.16042969 12.51328125 14.13335937 13.7765625 14.10546875 15.078125 C14.07066406 16.04234375 14.03585937 17.0065625 14 18 C13.01 18.33 12.02 18.66 11 19 C10.34 18.67 9.68 18.34 9 18 C6.795636 17.77049681 4.58607827 17.58924067 2.375 17.4375 C1.18648438 17.35371094 -0.00203125 17.26992187 -1.2265625 17.18359375 C-2.59941406 17.09271484 -2.59941406 17.09271484 -4 17 C-4.3690205 7.58997722 -4.3690205 7.58997722 -2 3 C-1.34 3 -0.68 3 0 3 C0 2.01 0 1.02 0 0 Z " fill="#03CB2B" transform="translate(318,177)"/>
<path d="M0 0 C0.33 0 0.66 0 1 0 C1 4.62 1 9.24 1 14 C5.62 14 10.24 14 15 14 C15 13.01 15 12.02 15 11 C16.32 11 17.64 11 19 11 C19.33 9.68 19.66 8.36 20 7 C20.495 8.485 20.495 8.485 21 10 C19.36078391 12.45882414 18.52623837 13.54125433 16 15 C11.33942493 15.74949225 6.7155539 15.92980908 2 16 C1.98582031 16.86882812 1.97164063 17.73765625 1.95703125 18.6328125 C1.51828384 29.23389852 1.51828384 29.23389852 -1.0625 32.75 C-5.0154037 35.77775603 -7.03000557 36 -12 36 C-16.51106078 34.97475891 -18.4279321 32.76624228 -21 29 C-22.00496852 25.98509443 -22.10335303 23.95818308 -22.0625 20.8125 C-22.05347656 19.91144531 -22.04445313 19.01039063 -22.03515625 18.08203125 C-22.02355469 17.39496094 -22.01195312 16.70789063 -22 16 C-22.64066406 16.03480469 -23.28132813 16.06960937 -23.94140625 16.10546875 C-29.78994089 16.28850784 -33.88580043 15.93794444 -39 13 C-39.33 12.01 -39.66 11.02 -40 10 C-39.34 10 -38.68 10 -38 10 C-38 10.66 -38 11.32 -38 12 C-36.79601562 12.12117187 -35.59203125 12.24234375 -34.3515625 12.3671875 C-32.77599234 12.53599859 -31.20047408 12.70529459 -29.625 12.875 C-28.8309375 12.95363281 -28.036875 13.03226563 -27.21875 13.11328125 C-21.2265625 13.7734375 -21.2265625 13.7734375 -19 16 C-18.82630168 17.95339423 -18.73303898 19.91442704 -18.6875 21.875 C-18.47976479 26.82379024 -18.47976479 26.82379024 -15.4375 30.625 C-14.633125 31.07875 -13.82875 31.5325 -13 32 C-13 32.66 -13 33.32 -13 34 C-11.53932801 33.54917531 -10.08151968 33.08906463 -8.625 32.625 C-7.81289063 32.36976563 -7.00078125 32.11453125 -6.1640625 31.8515625 C-3.83540815 31.10145717 -3.83540815 31.10145717 -2 29 C-1.53603307 26.10776497 -1.53603307 26.10776497 -1.375 22.875 C-1.25125 20.93625 -1.1275 18.9975 -1 17 C-5.29 17 -9.58 17 -14 17 C-14.33 16.01 -14.66 15.02 -15 14 C-17.50447516 12.78130071 -17.50447516 12.78130071 -20 12 C-19.67 10.68 -19.34 9.36 -19 8 C-18.46375 8.804375 -17.9275 9.60875 -17.375 10.4375 C-13.03871086 14.93910222 -5.73931728 13.83908456 0 14 C0 9.38 0 4.76 0 0 Z " fill="#1BAB3A" transform="translate(333,202)"/>
<path d="M0 0 C0.77943466 0.00222061 1.55886932 0.00444122 2.36192322 0.00672913 C3.68317955 0.00684242 3.68317955 0.00684242 5.03112793 0.00695801 C5.98841293 0.01211929 6.94569794 0.01728058 7.93199158 0.02259827 C9.39480812 0.02472069 9.39480812 0.02472069 10.88717651 0.02688599 C14.01542675 0.03250319 17.14360656 0.04505859 20.27183533 0.05775452 C22.38706867 0.0627673 24.50230313 0.06733059 26.61753845 0.07142639 C31.81482829 0.0824782 37.01207678 0.09923305 42.20933533 0.12025452 C41.58366429 4.50602628 40.70724268 7.42769583 38.20933533 11.12025452 C37.20933533 9.12025452 37.20933533 9.12025452 39.20933533 2.12025452 C26.33933533 2.12025452 13.46933533 2.12025452 0.20933533 2.12025452 C0.53933533 17.63025452 0.86933533 33.14025452 1.20933533 49.12025452 C2.19933533 49.12025452 3.18933533 49.12025452 4.20933533 49.12025452 C4.39496033 48.16119202 4.39496033 48.16119202 4.58433533 47.18275452 C4.79058533 46.50212952 4.99683533 45.82150452 5.20933533 45.12025452 C6.19933533 44.62525452 6.19933533 44.62525452 7.20933533 44.12025452 C7.20933533 44.78025452 7.20933533 45.44025452 7.20933533 46.12025452 C8.19933533 46.45025452 9.18933533 46.78025452 10.20933533 47.12025452 C4.37834941 53.11321226 4.37834941 53.11321226 1.20933533 55.12025452 C0.21933533 55.12025452 -0.77066467 55.12025452 -1.79066467 55.12025452 C-2.68874998 52.04258933 -2.91715298 49.29338078 -2.9200592 46.09217834 C-2.92321136 45.09467056 -2.92636353 44.09716278 -2.92961121 43.06942749 C-2.92758698 41.99952072 -2.92556274 40.92961395 -2.92347717 39.82728577 C-2.9244339 38.72551498 -2.92539063 37.6237442 -2.92637634 36.48858643 C-2.92705635 34.16276492 -2.92521456 31.83694151 -2.92103577 29.51112366 C-2.91566974 25.93612962 -2.92099469 22.36126035 -2.92738342 18.78627014 C-2.92672291 16.5291084 -2.9254423 14.27194675 -2.92347717 12.01478577 C-2.9255014 10.9388063 -2.92752563 9.86282684 -2.92961121 8.75424194 C-2.92645905 7.76619064 -2.92330688 6.77813934 -2.9200592 5.76014709 C-2.91926361 4.8861879 -2.91846802 4.0122287 -2.91764832 3.11178589 C-2.75417414 0.54795995 -2.57129241 0.17267863 0 0 Z " fill="#19BC3A" transform="translate(224.79066467285156,219.87974548339844)"/>
<path d="M0 0 C3.48539917 0.64544429 6.02819057 2.10134397 9 4 C9.33 2.68 9.66 1.36 10 0 C17.26 0 24.52 0 32 0 C32 19.14 32 38.28 32 58 C25.07 58 18.14 58 11 58 C10.01 56.68 9.02 55.36 8 54 C8.33 53.01 8.66 52.02 9 51 C9.99 51 10.98 51 12 51 C12.33 52.65 12.66 54.3 13 56 C18.61 56.33 24.22 56.66 30 57 C30 38.52 30 20.04 30 1 C23.73 1 17.46 1 11 1 C11.33 2.98 11.66 4.96 12 7 C10.68 7 9.36 7 8 7 C8 6.34 8 5.68 8 5 C7.13375 4.814375 7.13375 4.814375 6.25 4.625 C3.97664233 3.99351176 2.0746471 3.11141809 0 2 C0 1.34 0 0.68 0 0 Z " fill="#0E1950" transform="translate(265,233)"/>
<path d="M0 0 C0.99128906 -0.00257813 1.98257813 -0.00515625 3.00390625 -0.0078125 C5.4375 0.125 5.4375 0.125 6.4375 1.125 C7.51362052 14.4441966 7.51362052 14.4441966 4.75 18.8125 C1.56021102 22.00228898 -1.30206073 23.70485358 -5.5625 25.125 C-9.1925 25.125 -12.8225 25.125 -16.5625 25.125 C-16.5625 33.705 -16.5625 42.285 -16.5625 51.125 C-16.8925 51.125 -17.2225 51.125 -17.5625 51.125 C-17.8925 43.535 -18.2225 35.945 -18.5625 28.125 C-19.8825 28.455 -21.2025 28.785 -22.5625 29.125 C-21.02491017 23.90876785 -18.73800273 19.3342739 -16.1875 14.5625 C-15.80078125 13.82064453 -15.4140625 13.07878906 -15.015625 12.31445312 C-8.46836338 -0.02208178 -8.46836338 -0.02208178 0 0 Z M-12.1640625 10.5234375 C-13.72032292 12.92633682 -13.72032292 12.92633682 -13.5625 15.125 C-14.2225 15.125 -14.8825 15.125 -15.5625 15.125 C-15.8925 17.765 -16.2225 20.405 -16.5625 23.125 C-14.66698978 23.17941656 -12.7710208 23.21798035 -10.875 23.25 C-9.81925781 23.27320313 -8.76351562 23.29640625 -7.67578125 23.3203125 C-3.58437081 23.06363681 -0.68914795 22.29188537 2.1875 19.3125 C5.21972391 14.00610816 4.54117599 8.0575703 4.4375 2.125 C-4.42111072 0.32786381 -7.38670246 3.21577609 -12.1640625 10.5234375 Z " fill="#1F6F2D" transform="translate(167.5625,217.875)"/>
<path d="M0 0 C7.59 0 15.18 0 23 0 C23 14.52 23 29.04 23 44 C15.41 44 7.82 44 0 44 C0 29.48 0 14.96 0 0 Z M2 1 C1.97709361 6.82076811 1.95716574 12.641381 1.94506836 18.4621582 C1.94002733 20.44393441 1.93319462 22.42570689 1.92456055 24.4074707 C1.91248485 27.24952109 1.90676955 30.09152247 1.90234375 32.93359375 C1.89718246 33.82525742 1.89202118 34.71692108 1.88670349 35.63560486 C1.88650823 37.75740601 1.9378997 39.8791078 2 42 C2.33 42.33 2.66 42.66 3 43 C9.27 43 15.54 43 22 43 C22 29.14 22 15.28 22 1 C15.4 1 8.8 1 2 1 Z " fill="#0F1652" transform="translate(311,246)"/>
<path d="M0 0 C0.66 0 1.32 0 2 0 C2 9.57 2 19.14 2 29 C-3.53786335 31.07669876 -8.13043999 32.62164766 -13.8125 33.75 C-15.74029297 34.14445312 -15.74029297 34.14445312 -17.70703125 34.546875 C-21 35 -21 35 -24 34 C-21.64722731 31.27573689 -19.37503669 30.1858237 -16 29 C-16 28.34 -16 27.68 -16 27 C-15.34 27 -14.68 27 -14 27 C-13.01 23.7 -12.02 20.4 -11 17 C-10.67 17 -10.34 17 -10 17 C-9.9729957 18.45823212 -9.95360213 19.91660675 -9.9375 21.375 C-9.92589844 22.18710937 -9.91429687 22.99921875 -9.90234375 23.8359375 C-10 26 -10 26 -11 28 C-7.7 28 -4.4 28 -1 28 C-0.67 18.76 -0.34 9.52 0 0 Z " fill="#1E9733" transform="translate(206,254)"/>
<path d="M0 0 C0.71994141 -0.02449219 1.43988281 -0.04898438 2.18164062 -0.07421875 C7.40579311 -0.10332266 7.40579311 -0.10332266 9.8828125 2.125 C12.13934392 6.9389337 12.33800841 11.68054134 11.125 16.8125 C9.9375 19.375 9.9375 19.375 7.9375 21.375 C6.6175 21.375 5.2975 21.375 3.9375 21.375 C3.9375 22.035 3.9375 22.695 3.9375 23.375 C2.50010487 23.40212066 1.06256137 23.42145067 -0.375 23.4375 C-1.57576172 23.45490234 -1.57576172 23.45490234 -2.80078125 23.47265625 C-5.0625 23.375 -5.0625 23.375 -8.0625 22.375 C-10.86972422 17.93411798 -11.50486472 14.19686791 -11.75 9 C-11.81574219 7.75476563 -11.88148438 6.50953125 -11.94921875 5.2265625 C-11.98660156 4.28554687 -12.02398437 3.34453125 -12.0625 2.375 C-8.27064111 -0.10010372 -4.37581116 0.00787725 0 0 Z M-8.22265625 5.5234375 C-10.05821718 9.57020904 -9.67861057 13.57406142 -8.25 17.75 C-6.98704922 19.67411164 -6.98704922 19.67411164 -4.0625 21.375 C1.44055425 21.94468642 1.44055425 21.94468642 6.375 19.9375 C8.64379427 16.2166774 9.15418709 12.7087419 8.9375 8.375 C7.58663319 5.35163142 6.26164606 3.69914606 3.9375 1.375 C-1.60186061 0.64852648 -4.72727572 0.55693722 -8.22265625 5.5234375 Z " fill="#131E6E" transform="translate(266.0625,250.625)"/>
<path d="M0 0 C0.99 0.33 1.98 0.66 3 1 C3 2.65 3 4.3 3 6 C4.32 6 5.64 6 7 6 C7 4.35 7 2.7 7 1 C8.32 1.33 9.64 1.66 11 2 C11 6.29 11 10.58 11 15 C9.68 15 8.36 15 7 15 C7 13.35 7 11.7 7 10 C5.68 10 4.36 10 3 10 C3 11.98 3 13.96 3 16 C1.68 15.67 0.36 15.34 -1 15 C-1.02685412 12.68756208 -1.04632841 10.3750373 -1.0625 8.0625 C-1.07410156 6.77472656 -1.08570313 5.48695313 -1.09765625 4.16015625 C-1 1 -1 1 0 0 Z " fill="#0E1555" transform="translate(225,301)"/>
<path d="M0 0 C2.05859375 0.3359375 2.05859375 0.3359375 4.05859375 2.3359375 C4.05859375 3.6559375 4.05859375 4.9759375 4.05859375 6.3359375 C2.73859375 6.3359375 1.41859375 6.3359375 0.05859375 6.3359375 C0.05859375 5.6759375 0.05859375 5.0159375 0.05859375 4.3359375 C-1.59140625 4.3359375 -3.24140625 4.3359375 -4.94140625 4.3359375 C-4.94140625 5.9859375 -4.94140625 7.6359375 -4.94140625 9.3359375 C-1.61605868 10.44438669 0.6804195 10.18048106 4.05859375 9.3359375 C3.74609375 11.2109375 3.74609375 11.2109375 3.05859375 13.3359375 C0.05859375 15.3359375 0.05859375 15.3359375 -3.44140625 15.2109375 C-6.94140625 14.3359375 -6.94140625 14.3359375 -8.87890625 12.6484375 C-10.26572058 9.6300769 -10.35269365 7.62623671 -9.94140625 4.3359375 C-8.01382858 -0.54725927 -4.65676286 -0.07646573 0 0 Z " fill="#121A62" transform="translate(269.94140625,301.6640625)"/>
<path d="M0 0 C2.05859375 0.3359375 2.05859375 0.3359375 4.05859375 2.3359375 C4.05859375 3.6559375 4.05859375 4.9759375 4.05859375 6.3359375 C1.08859375 6.0059375 -1.88140625 5.6759375 -4.94140625 5.3359375 C-4.61140625 6.9859375 -4.28140625 8.6359375 -3.94140625 10.3359375 C-1.30140625 10.0059375 1.33859375 9.6759375 4.05859375 9.3359375 C3.74609375 11.2109375 3.74609375 11.2109375 3.05859375 13.3359375 C0.05859375 15.3359375 0.05859375 15.3359375 -3.44140625 15.2109375 C-6.94140625 14.3359375 -6.94140625 14.3359375 -8.87890625 12.6484375 C-10.26572058 9.6300769 -10.35269365 7.62623671 -9.94140625 4.3359375 C-8.01382858 -0.54725927 -4.65676286 -0.07646573 0 0 Z " fill="#0F1653" transform="translate(250.94140625,301.6640625)"/>
<path d="M0 0 C0.33 0 0.66 0 1 0 C1 4.62 1 9.24 1 14 C5.62 14 10.24 14 15 14 C15 13.01 15 12.02 15 11 C16.32 11 17.64 11 19 11 C19.33 9.68 19.66 8.36 20 7 C20.495 8.485 20.495 8.485 21 10 C19.36078391 12.45882414 18.52623837 13.54125433 16 15 C11.33942493 15.74949225 6.7155539 15.92980908 2 16 C1.67 19.63 1.34 23.26 1 27 C-1 23 -1 23 -1 17 C-5.29 17 -9.58 17 -14 17 C-14.33 16.01 -14.66 15.02 -15 14 C-17.50447516 12.78130071 -17.50447516 12.78130071 -20 12 C-19.67 10.68 -19.34 9.36 -19 8 C-18.195625 9.2065625 -18.195625 9.2065625 -17.375 10.4375 C-13.03871086 14.93910222 -5.73931728 13.83908456 0 14 C0 9.38 0 4.76 0 0 Z " fill="#1B8744" transform="translate(333,202)"/>
<path d="M0 0 C-2.07493094 1.11157015 -3.79435726 1.96371011 -6.125 2.375 C-8.21059622 2.84540342 -8.21059622 2.84540342 -9.25 5.0625 C-9.4975 5.701875 -9.745 6.34125 -10 7 C-10 6.34 -10 5.68 -10 5 C-11.96756452 5.03122943 -11.96756452 5.03122943 -14 6 C-15.3045656 8.99615946 -15.3045656 8.99615946 -16 12 C-16.33 11.34 -16.66 10.68 -17 10 C-17.66 10 -18.32 10 -19 10 C-19.33 11.32 -19.66 12.64 -20 14 C-21.98 14 -23.96 14 -26 14 C-26 13.34 -26 12.68 -26 12 C-27.32 12.33 -28.64 12.66 -30 13 C-24.01622948 6.57931925 -8.87099232 -2.95699744 0 0 Z " fill="#199B2F" transform="translate(209,188)"/>
<path d="M0 0 C14.19 0 28.38 0 43 0 C42.15332803 5.0800318 41.69856257 7.01082055 39 11 C38 9 38 9 40 2 C27.13 2 14.26 2 1 2 C0.67 1.34 0.34 0.68 0 0 Z " fill="#2DB345" transform="translate(224,220)"/>
<path d="M0 0 C1.08174162 3.36541838 0.92538169 4.29847322 0 8 C3.63 8 7.26 8 11 8 C11 8.66 11 9.32 11 10 C7.37 10 3.74 10 0 10 C0 18.58 0 27.16 0 36 C-0.33 36 -0.66 36 -1 36 C-1.33 28.41 -1.66 20.82 -2 13 C-3.32 13.33 -4.64 13.66 -6 14 C-4.50829734 9.0276578 -2.39542583 4.58154261 0 0 Z " fill="#147626" transform="translate(151,233)"/>
<path d="M0 0 C0.99 0.495 0.99 0.495 2 1 C2 4.96 2 8.92 2 13 C3.69125 12.938125 5.3825 12.87625 7.125 12.8125 C12.88264059 12.81990057 16.46569297 13.80360058 20.875 17.625 C22.62316445 21.3155694 22.2316324 24.98503847 22 29 C21.67 29 21.34 29 21 29 C21 26.36 21 23.72 21 21 C20.34 21 19.68 21 19 21 C18.67 20.34 18.34 19.68 18 19 C17.01 18.67 16.02 18.34 15 18 C15 17.34 15 16.68 15 16 C10.05 15.67 5.1 15.34 0 15 C0 10.05 0 5.1 0 0 Z " fill="#219431" transform="translate(333,181)"/>
<path d="M0 0 C2.39774745 -0.13572155 4.78775245 -0.23436868 7.1875 -0.3125 C8.19780273 -0.3753418 8.19780273 -0.3753418 9.22851562 -0.43945312 C12.97372488 -0.53079969 14.85865316 -0.096711 17.96875 2.03125 C20.48569062 5.70985553 20.57924351 8.52408511 20.3125 12.8125 C20.28994141 13.50537109 20.26738281 14.19824219 20.24414062 14.91210938 C20.18562661 16.60901573 20.0959548 18.30479861 20 20 C17.77191841 20.10853983 15.54230068 20.18583307 13.3125 20.25 C12.07113281 20.29640625 10.82976562 20.3428125 9.55078125 20.390625 C5.4303313 19.93733018 3.89212108 18.89748679 1 16 C-0.50156874 12.99686252 -0.09281204 10.20932478 -0.0625 6.875 C-0.05347656 5.59367188 -0.04445313 4.31234375 -0.03515625 2.9921875 C-0.02355469 2.00476563 -0.01195312 1.01734375 0 0 Z M1 1 C0.18170902 9.18241847 0.18170902 9.18241847 2.6875 16.75 C5.60255145 19.66505145 8.86224051 19.34918131 12.8125 19.375 C14.8765431 19.27878489 16.94014359 19.16285834 19 19 C19.13536022 16.91846065 19.23215465 14.83438794 19.3125 12.75 C19.37050781 11.58984375 19.42851562 10.4296875 19.48828125 9.234375 C19.30070703 5.84103204 19.30070703 5.84103204 16.66796875 3.640625 C12.87612827 1.30889293 10.17708293 0.8808171 5.8125 0.9375 C4.91144531 0.94652344 4.01039063 0.95554688 3.08203125 0.96484375 C2.05142578 0.98224609 2.05142578 0.98224609 1 1 Z " fill="#01425B" transform="translate(313,196)"/>
<path d="M0 0 C3.0625 2.5625 3.0625 2.5625 5 5 C4.01 5.33 3.02 5.66 2 6 C1.34 5.01 0.68 4.02 0 3 C-2.6556728 2.41651248 -2.6556728 2.41651248 -5.625 2.3125 C-6.62789063 2.24675781 -7.63078125 2.18101562 -8.6640625 2.11328125 C-9.43492187 2.07589844 -10.20578125 2.03851563 -11 2 C-11 2.99 -11 3.98 -11 5 C-11.66 5 -12.32 5 -13 5 C-13.66 9.62 -14.32 14.24 -15 19 C-15.33 19 -15.66 19 -16 19 C-17.70516237 7.62099566 -17.70516237 7.62099566 -16.05859375 3.8359375 C-11.56587727 -1.60896665 -6.39669426 -1.69159516 0 0 Z " fill="#199D33" transform="translate(329,175)"/>
<path d="M0 0 C0.33 0 0.66 0 1 0 C0.99887207 0.67877197 0.99774414 1.35754395 0.99658203 2.05688477 C1.05045392 15.89376144 1.44081765 27.60836289 8 40 C8.33 40.66 8.66 41.32 9 42 C5.04 41.505 5.04 41.505 1 41 C1.5878125 39.9790625 1.5878125 39.9790625 2.1875 38.9375 C3.37318896 35.95171377 3.37318896 35.95171377 1.5625 33.25 C-1.18130456 27.27301492 -0.31109126 20.49157757 -0.1875 14.0625 C-0.17242992 12.69728034 -0.15874561 11.33204465 -0.14648438 9.96679688 C-0.11126164 6.64411904 -0.06200041 3.32226819 0 0 Z " fill="#22C340" transform="translate(149,244)"/>
<path d="M0 0 C1.64524467 0.04234901 3.29034903 0.09037435 4.93530273 0.14282227 C6.23164894 0.17823875 6.23164894 0.17823875 7.55418396 0.21437073 C10.32591396 0.29120113 13.09737804 0.37514147 15.86889648 0.45922852 C17.74323225 0.51242983 19.61758115 0.56517034 21.49194336 0.61743164 C26.0969308 0.74684234 30.70169185 0.88263168 35.30639648 1.02172852 C35.30639648 1.35172852 35.30639648 1.68172852 35.30639648 2.02172852 C22.76639648 2.02172852 10.22639648 2.02172852 -2.69360352 2.02172852 C-2.36360352 6.64172852 -2.03360352 11.26172852 -1.69360352 16.02172852 C-2.35360352 16.02172852 -3.01360352 16.02172852 -3.69360352 16.02172852 C-4.77850023 12.76703837 -4.82684344 10.31629643 -4.81860352 6.89672852 C-4.82118164 5.82165039 -4.82375977 4.74657227 -4.82641602 3.63891602 C-4.61837097 -0.46079526 -4.2801488 0.02517901 0 0 Z " fill="#2AAD45" transform="translate(169.693603515625,252.978271484375)"/>
<path d="M0 0 C0 0.66 0 1.32 0 2 C-0.72445313 2.09796875 -1.44890625 2.1959375 -2.1953125 2.296875 C-11.40048993 3.72060911 -16.37537656 6.65674161 -22 14 C-23.95720377 16.93580566 -24.30195175 17.89822836 -24.6328125 21.23046875 C-24.71660156 22.03291016 -24.80039063 22.83535156 -24.88671875 23.66210938 C-24.96535156 24.49548828 -25.04398438 25.32886719 -25.125 26.1875 C-25.21136719 27.03248047 -25.29773438 27.87746094 -25.38671875 28.74804688 C-25.5985739 30.83128923 -25.80026777 32.91556042 -26 35 C-26.33 35 -26.66 35 -27 35 C-27.95722238 17.66363903 -27.95722238 17.66363903 -22 10 C-21.52691406 9.25878906 -21.05382812 8.51757812 -20.56640625 7.75390625 C-17.96520937 4.11482533 -16.09863486 2.31633333 -11.73046875 1.05859375 C-7.81527965 0.44131476 -3.96600467 0 0 0 Z " fill="#14A854" transform="translate(262,231)"/>
<path d="M0 0 C0.66 0.33 1.32 0.66 2 1 C1.67 18.49 1.34 35.98 1 54 C1.66 54.33 2.32 54.66 3 55 C2.01 55 1.02 55 0 55 C-0.89808531 51.92233481 -1.12648831 49.17312626 -1.12939453 45.97192383 C-1.13254669 44.97441605 -1.13569885 43.97690826 -1.13894653 42.94917297 C-1.1369223 41.8792662 -1.13489807 40.80935944 -1.1328125 39.70703125 C-1.13376923 38.60526047 -1.13472595 37.50348969 -1.13571167 36.36833191 C-1.13639168 34.0425104 -1.13454988 31.71668699 -1.13037109 29.39086914 C-1.12500507 25.8158751 -1.13033001 22.24100583 -1.13671875 18.66601562 C-1.13605824 16.40885389 -1.13477763 14.15169223 -1.1328125 11.89453125 C-1.13483673 10.81855179 -1.13686096 9.74257233 -1.13894653 8.63398743 C-1.13579437 7.64593613 -1.13264221 6.65788483 -1.12939453 5.63989258 C-1.12859894 4.76593338 -1.12780334 3.89197418 -1.12698364 2.99153137 C-1 1 -1 1 0 0 Z " fill="#1F722E" transform="translate(223,220)"/>
<path d="M0 0 C1.83863505 1.11631414 3.67079723 2.24329627 5.5 3.375 C6.5209375 4.00148438 7.541875 4.62796875 8.59375 5.2734375 C9.3878125 5.84320313 10.181875 6.41296875 11 7 C11 7.66 11 8.32 11 9 C8.95809019 8.85761163 6.91647955 8.71092972 4.875 8.5625 C3.73804688 8.48128906 2.60109375 8.40007812 1.4296875 8.31640625 C-1.7540478 8.02269035 -4.85510907 7.56875687 -8 7 C-8 6.34 -8 5.68 -8 5 C-4.7 5 -1.4 5 2 5 C1.34 3.35 0.68 1.7 0 0 Z " fill="#228134" transform="translate(155,280)"/>
<path d="M0 0 C0.886875 0.969375 1.77375 1.93875 2.6875 2.9375 C7.13020647 6.83975352 11.58622471 6.75775708 17.3046875 6.89453125 C20 7 20 7 21 8 C21.07226502 9.85287502 21.0838122 11.70833878 21.0625 13.5625 C21.05347656 14.57441406 21.04445313 15.58632812 21.03515625 16.62890625 C21.02355469 17.41136719 21.01195312 18.19382813 21 19 C18.67778127 15.22639456 19 13.98800589 19 9 C14.71 9 10.42 9 6 9 C5.67 8.01 5.34 7.02 5 6 C2.49552484 4.78130071 2.49552484 4.78130071 0 4 C0 2.68 0 1.36 0 0 Z " fill="#19B844" transform="translate(313,210)"/>
<path d="M0 0 C2.90856706 -0.35797748 5.52876154 -0.50960772 8.4375 -0.5 C9.21416016 -0.52835937 9.99082031 -0.55671875 10.79101562 -0.5859375 C13.05859375 -0.59375 13.05859375 -0.59375 17 0 C19.03515625 2.53125 19.03515625 2.53125 20 5 C19.01 5.495 19.01 5.495 18 6 C18.226875 6.598125 18.45375 7.19625 18.6875 7.8125 C18.790625 8.534375 18.89375 9.25625 19 10 C18.01 10.99 17.02 11.98 16 13 C16 9.04 16 5.08 16 1 C11.05 1 6.1 1 1 1 C0.67 2.65 0.34 4.3 0 6 C-0.66 5.01 -1.32 4.02 -2 3 C-1.34 2.01 -0.68 1.02 0 0 Z " fill="#1AC238" transform="translate(180,264)"/>
<path d="M0 0 C0.99 0.66 1.98 1.32 3 2 C3.29296875 5.0390625 3.29296875 5.0390625 3.1875 8.625 C3.16042969 9.81351563 3.13335937 11.00203125 3.10546875 12.2265625 C3.07066406 13.14179688 3.03585937 14.05703125 3 15 C0.61328125 15.15625 0.61328125 15.15625 -2 15 C-3.8125 12.5 -3.8125 12.5 -5 10 C-2.69 10 -0.38 10 2 10 C1.67 8.68 1.34 7.36 1 6 C0.01 6.33 -0.98 6.66 -2 7 C-1.42415568 4.61435923 -0.77772405 2.33317216 0 0 Z " fill="#0A2781" transform="translate(329,200)"/>
<path d="M0 0 C0.66 0 1.32 0 2 0 C2 0.66 2 1.32 2 2 C7.61 2.66 13.22 3.32 19 4 C19 7.96 19 11.92 19 16 C18.67 16 18.34 16 18 16 C18 12.7 18 9.4 18 6 C16.494375 6.061875 14.98875 6.12375 13.4375 6.1875 C8.48639969 6.1875 5.29211554 5.46568339 1 3 C0.67 2.01 0.34 1.02 0 0 Z " fill="#126E24" transform="translate(293,212)"/>
<path d="M0 0 C0.33 0 0.66 0 1 0 C1.06058594 0.95261719 1.12117187 1.90523437 1.18359375 2.88671875 C1.26738281 4.14097656 1.35117188 5.39523437 1.4375 6.6875 C1.51871094 7.92886719 1.59992188 9.17023438 1.68359375 10.44921875 C1.9457819 13.39155249 2.38550772 16.11956742 3 19 C3.20628085 20.60185991 3.39467301 22.206156 3.5625 23.8125 C3.64628906 24.60269531 3.73007813 25.39289063 3.81640625 26.20703125 C3.87699219 26.79871094 3.93757812 27.39039063 4 28 C2 27 2 27 0.9296875 24.05859375 C0.58164063 22.86363281 0.23359375 21.66867187 -0.125 20.4375 C-0.47820312 19.23996094 -0.83140625 18.04242188 -1.1953125 16.80859375 C-1.46085938 15.88175781 -1.72640625 14.95492188 -2 14 C-1.67 13.67 -1.34 13.34 -1 13 C-0.76518307 10.81707226 -0.58636677 8.62796826 -0.4375 6.4375 C-0.35371094 5.23996094 -0.26992187 4.04242188 -0.18359375 2.80859375 C-0.12300781 1.88175781 -0.06242188 0.95492187 0 0 Z " fill="#092757" transform="translate(236,253)"/>
<path d="M0 0 C2.05859375 0.3359375 2.05859375 0.3359375 4.05859375 2.3359375 C4.05859375 3.6559375 4.05859375 4.9759375 4.05859375 6.3359375 C2.73859375 6.3359375 1.41859375 6.3359375 0.05859375 6.3359375 C0.05859375 5.6759375 0.05859375 5.0159375 0.05859375 4.3359375 C0.71859375 4.3359375 1.37859375 4.3359375 2.05859375 4.3359375 C2.05859375 3.6759375 2.05859375 3.0159375 2.05859375 2.3359375 C-0.58140625 2.3359375 -3.22140625 2.3359375 -5.94140625 2.3359375 C-6.27140625 4.6459375 -6.60140625 6.9559375 -6.94140625 9.3359375 C-7.93140625 9.6659375 -8.92140625 9.9959375 -9.94140625 10.3359375 C-10.15372338 7.22195293 -10.15731122 4.88289676 -9.00390625 1.9609375 C-6.0767282 -0.34532399 -3.63490041 -0.05968638 0 0 Z " fill="#0E1448" transform="translate(269.94140625,301.6640625)"/>
<path d="M0 0 C0.33 0.66 0.66 1.32 1 2 C1.99 2.33 2.98 2.66 4 3 C1.42215154 5.64752004 -0.91648098 7.94432065 -4 10 C-4.99 10 -5.98 10 -7 10 C-7 9.34 -7 8.68 -7 8 C-6.34 8 -5.68 8 -5 8 C-5 7.01 -5 6.02 -5 5 C-4.01 5 -3.02 5 -2 5 C-1.855625 4.360625 -1.71125 3.72125 -1.5625 3.0625 C-1 1 -1 1 0 0 Z " fill="#16A032" transform="translate(231,264)"/>
<path d="M0 0 C0.33 0 0.66 0 1 0 C1.85994341 13.95019304 1.85994341 13.95019304 -1.125 17.8125 C-4.23233937 20.17677995 -6.13280702 20.82013056 -10 21 C-9.01 19.515 -9.01 19.515 -8 18 C-6.68 18 -5.36 18 -4 18 C-1.72942897 11.95942424 -0.51085812 6.43681228 0 0 Z " fill="#21A137" transform="translate(172,221)"/>
<path d="M0 0 C5.28 0 10.56 0 16 0 C16 1.65 16 3.3 16 5 C15.505 4.505 15.01 4.01 14.5 3.5 C11.01204551 1.40722731 7.97988249 1.36387124 4 2 C1.5404226 3.33830958 1.5404226 3.33830958 0 5 C0 3.35 0 1.7 0 0 Z " fill="#0A124B" transform="translate(258,251)"/>
<path d="M0 0 C0.66 0 1.32 0 2 0 C0.67997942 3.57294032 -0.89521388 6.63953492 -3 9.8125 C-3.515625 10.60269531 -4.03125 11.39289063 -4.5625 12.20703125 C-5.036875 12.79871094 -5.51125 13.39039063 -6 14 C-6.66 14 -7.32 14 -8 14 C-6.62091009 8.48364034 -3.8578521 4.13041773 0 0 Z " fill="#1C8531" transform="translate(160,219)"/>
<path d="M0 0 C3.48539917 0.64544429 6.02819057 2.10134397 9 4 C9.66 2.68 10.32 1.36 11 0 C11.33 2.31 11.66 4.62 12 7 C10.68 7 9.36 7 8 7 C8 6.34 8 5.68 8 5 C7.13375 4.814375 7.13375 4.814375 6.25 4.625 C3.97664233 3.99351176 2.0746471 3.11141809 0 2 C0 1.34 0 0.68 0 0 Z " fill="#0D1656" transform="translate(265,233)"/>
<path d="M0 0 C0.33 0 0.66 0 1 0 C1 4.95 1 9.9 1 15 C4.96 15 8.92 15 13 15 C13 15.33 13 15.66 13 16 C9.04 16 5.08 16 1 16 C0.67 16.66 0.34 17.32 0 18 C-0.66 17.01 -1.32 16.02 -2 15 C-1.67 14.67 -1.34 14.34 -1 14 C-0.76472227 11.65012738 -0.58613583 9.29443961 -0.4375 6.9375 C-0.35371094 5.64714844 -0.26992188 4.35679687 -0.18359375 3.02734375 C-0.12300781 2.02832031 -0.06242187 1.02929688 0 0 Z " fill="#0DC633" transform="translate(332,181)"/>
<path d="M0 0 C0.66 0.804375 1.32 1.60875 2 2.4375 C5.87979228 5.75148924 8.00014825 5.74577025 13 6 C13 6.66 13 7.32 13 8 C11.56260487 8.02712066 10.12506137 8.04645067 8.6875 8.0625 C7.48673828 8.07990234 7.48673828 8.07990234 6.26171875 8.09765625 C4 8 4 8 1 7 C0.67 4.69 0.34 2.38 0 0 Z " fill="#0B1452" transform="translate(257,266)"/>
<path d="M0 0 C-0.33 1.32 -0.66 2.64 -1 4 C-2.98 4 -4.96 4 -7 4 C-7 3.34 -7 2.68 -7 2 C-8.32 2.33 -9.64 2.66 -11 3 C-8.21756596 -1.17365106 -4.53441502 -0.22300402 0 0 Z " fill="#0DB32B" transform="translate(190,198)"/>
<path d="M0 0 C0.66 0.33 1.32 0.66 2 1 C0.25 4.875 0.25 4.875 -2 6 C-0.68 6.33 0.64 6.66 2 7 C-2.455 7.495 -2.455 7.495 -7 8 C-7 7.01 -7 6.02 -7 5 C-2.77777778 2 -2.77777778 2 0 2 C0 1.34 0 0.68 0 0 Z " fill="#236E31" transform="translate(190,281)"/>
<path d="M0 0 C0.66 0.33 1.32 0.66 2 1 C1.54109375 1.4125 1.0821875 1.825 0.609375 2.25 C-3.89351041 6.4880098 -6.51711645 10.33902551 -9 16 C-9.66796875 14.25 -9.66796875 14.25 -10 12 C-8.92578125 10 -8.92578125 10 -7.3125 8 C-6.75949219 7.3090625 -6.20648438 6.618125 -5.63671875 5.90625 C-3.85215559 3.82780889 -2.01359098 1.85869937 0 0 Z " fill="#014D5D" transform="translate(247,236)"/>
<path d="M0 0 C1.0828125 0.37125 1.0828125 0.37125 2.1875 0.75 C1.8575 2.4 1.5275 4.05 1.1875 5.75 C0.8575 5.09 0.5275 4.43 0.1875 3.75 C-2.4525 3.75 -5.0925 3.75 -7.8125 3.75 C-3.50480769 -0.31153846 -3.50480769 -0.31153846 0 0 Z " fill="#17AA30" transform="translate(191.8125,194.25)"/>
<path d="M0 0 C1.32 0 2.64 0 4 0 C3.6875 1.875 3.6875 1.875 3 4 C-0.22791555 6.1519437 -1.28400809 6.20086443 -5 6 C-5 5.34 -5 4.68 -5 4 C-3.68 4 -2.36 4 -1 4 C-0.67 2.68 -0.34 1.36 0 0 Z " fill="#0E1448" transform="translate(270,311)"/>
<path d="M0 0 C0 0.66 0 1.32 0 2 C-0.73605469 2.10957031 -1.47210938 2.21914062 -2.23046875 2.33203125 C-7.49271331 3.1870591 -11.51913193 3.96457324 -16 7 C-16.66 6.67 -17.32 6.34 -18 6 C-16.91015625 4.078125 -16.91015625 4.078125 -15 2 C-11.93359375 1.171875 -11.93359375 1.171875 -8.4375 0.75 C-6.70306641 0.52570313 -6.70306641 0.52570313 -4.93359375 0.296875 C-2 0 -2 0 0 0 Z " fill="#15B650" transform="translate(262,231)"/>
<path d="M0 0 C0.33 0 0.66 0 1 0 C1 4.29 1 8.58 1 13 C-0.32 13 -1.64 13 -3 13 C-3 11.35 -3 9.7 -3 8 C-2.01 8.33 -1.02 8.66 0 9 C0 6.03 0 3.06 0 0 Z " fill="#0A1050" transform="translate(235,303)"/>
<path d="M0 0 C0.66 0 1.32 0 2 0 C2.83796731 4.65537393 3.0161692 8.37078475 2 13 C1.34 13 0.68 13 0 13 C0 8.71 0 4.42 0 0 Z " fill="#1B267A" transform="translate(225,303)"/>
<path d="M0 0 C0.33 0.99 0.66 1.98 1 3 C-0.5625 5 -0.5625 5 -3 7 C-6.75 7.25 -6.75 7.25 -10 7 C-10 6.01 -10 5.02 -10 4 C-8.88625 4.061875 -7.7725 4.12375 -6.625 4.1875 C-5.42875 4.125625 -4.2325 4.06375 -3 4 C-2.34 3.01 -1.68 2.02 -1 1 C-0.67 0.67 -0.34 0.34 0 0 Z " fill="#1A812D" transform="translate(180,268)"/>
<path d="M0 0 C2 2 2 2 2.25 5.75 C2.16876295 9.45982506 1.38476789 12.53808026 0 16 C-1.32 15.67 -2.64 15.34 -4 15 C-3.01 14.67 -2.02 14.34 -1 14 C-0.83165067 12.22932584 -0.66538091 10.45845388 -0.5 8.6875 C-0.4071875 7.70136719 -0.314375 6.71523438 -0.21875 5.69921875 C0.04038857 2.95297861 0.04038857 2.95297861 0 0 Z " fill="#091042" transform="translate(274,256)"/>
<path d="M0 0 C-2 2 -2 2 -4.8203125 2.1953125 C-5.91085938 2.17210937 -7.00140625 2.14890625 -8.125 2.125 C-9.22070312 2.10695312 -10.31640625 2.08890625 -11.4453125 2.0703125 C-12.28835937 2.04710937 -13.13140625 2.02390625 -14 2 C-8.7868679 -0.64982856 -5.8570138 -1.19802555 0 0 Z " fill="#1B932F" transform="translate(222,185)"/>
<path d="M0 0 C2.7885289 -0.22107787 5.34653181 -0.28107535 8.125 -0.1875 C8.87910156 -0.17396484 9.63320312 -0.16042969 10.41015625 -0.14648438 C12.27374127 -0.11109985 14.13695978 -0.05729167 16 0 C16 0.33 16 0.66 16 1 C11.05 1 6.1 1 1 1 C0.67 2.65 0.34 4.3 0 6 C-0.66 5.01 -1.32 4.02 -2 3 C-1.34 2.01 -0.68 1.02 0 0 Z " fill="#39B956" transform="translate(180,264)"/>
<path d="M0 0 C4.82029598 3.73572939 4.82029598 3.73572939 5.33203125 7.3359375 C5.31436669 9.5758033 5.21850902 11.77120799 5 14 C4.67 14 4.34 14 4 14 C4 11.36 4 8.72 4 6 C3.34 6 2.68 6 2 6 C1.67 5.34 1.34 4.68 1 4 C0.01 3.67 -0.98 3.34 -2 3 C-1 1 -1 1 0 0 Z " fill="#1D802E" transform="translate(350,196)"/>
<path d="M0 0 C0.99 0.33 1.98 0.66 3 1 C3.94921875 3.06640625 3.94921875 3.06640625 4.6875 5.5625 C4.93886719 6.38878906 5.19023437 7.21507812 5.44921875 8.06640625 C5.63097656 8.70449219 5.81273437 9.34257812 6 10 C5.01 10 4.02 10 3 10 C0 3.375 0 3.375 0 0 Z " fill="#189230" transform="translate(149,270)"/>
<path d="M0 0 C1.125 1.6875 1.125 1.6875 2 4 C1.0230233 8.00560447 -0.55211574 9.81633997 -4 12 C-3.42655063 9.13275314 -3.1385485 8.1385485 -1 6 C-0.60235737 4.01178687 -0.26224651 2.01055661 0 0 Z " fill="#19912F" transform="translate(332,225)"/>
<path d="M0 0 C0.99 0 1.98 0 3 0 C3.12375 0.804375 3.2475 1.60875 3.375 2.4375 C3.684375 3.7059375 3.684375 3.7059375 4 5 C4.66 5.33 5.32 5.66 6 6 C4.35 6 2.7 6 1 6 C0.34 4.35 -0.32 2.7 -1 1 C-0.67 0.67 -0.34 0.34 0 0 Z " fill="#0B1760" transform="translate(274,284)"/>
<path d="M0 0 C1.98 0 3.96 0 6 0 C5.25 6.75 5.25 6.75 3 9 C3.0928125 7.329375 3.0928125 7.329375 3.1875 5.625 C3.125625 4.42875 3.06375 3.2325 3 2 C2.01 1.34 1.02 0.68 0 0 Z " fill="#0CC537" transform="translate(258,222)"/>
<path d="M0 0 C3.3 0 6.6 0 10 0 C10 0.66 10 1.32 10 2 C6.6875 2.6875 6.6875 2.6875 3 3 C2.01 2.01 1.02 1.02 0 0 Z " fill="#259D41" transform="translate(318,235)"/>
<path d="M0 0 C0.66 0 1.32 0 2 0 C2.33 2.64 2.66 5.28 3 8 C2.01 8.495 2.01 8.495 1 9 C0.67 6.03 0.34 3.06 0 0 Z " fill="#178C2E" transform="translate(291,203)"/>
<path d="M0 0 C0.99 0 1.98 0 3 0 C3 2.64 3 5.28 3 8 C2.67 6.68 2.34 5.36 2 4 C1.01 4 0.02 4 -1 4 C-0.67 2.68 -0.34 1.36 0 0 Z " fill="#18C23A" transform="translate(146,246)"/>
<path d="M0 0 C2.29013653 3.4352048 2.17842973 4.985331 2 9 C1.01 9 0.02 9 -1 9 C-0.67 6.03 -0.34 3.06 0 0 Z " fill="#11C734" transform="translate(140,274)"/>
<path d="M0 0 C0.33 0 0.66 0 1 0 C1.36923077 7.38461538 1.36923077 7.38461538 -0.5 10.5 C-0.995 10.995 -1.49 11.49 -2 12 C-1 3.42857143 -1 3.42857143 0 0 Z " fill="#1C822D" transform="translate(143,251)"/>
<path d="M0 0 C0.66 0.33 1.32 0.66 2 1 C1 4 1 4 -1 5 C-1.66 5.99 -2.32 6.98 -3 8 C-3.33 7.01 -3.66 6.02 -4 5 C-2.0625 2.3125 -2.0625 2.3125 0 0 Z " fill="#1B9B34" transform="translate(296,196)"/>
<path d="M0 0 C0.33 0 0.66 0 1 0 C1.10251672 5.12583611 1.03590199 9.94997778 0 15 C-0.33 15 -0.66 15 -1 15 C-1.38063221 12.6739143 -1.71269945 10.33944736 -2 8 C-1.67 7.67 -1.34 7.34 -1 7 C-0.63239269 4.67182036 -0.29758419 2.3381615 0 0 Z " fill="#0DC735" transform="translate(274,185)"/>
<path d="M0 0 C0.33 0.99 0.66 1.98 1 3 C0.67 3.66 0.34 4.32 0 5 C0.99 5.33 1.98 5.66 3 6 C0.69 6.33 -1.62 6.66 -4 7 C-3 5 -3 5 -1 2 C-0.67 1.34 -0.34 0.68 0 0 Z " fill="#2ABC47" transform="translate(192,280)"/>
<path d="M0 0 C0 0.66 0 1.32 0 2 C1.65 2 3.3 2 5 2 C5 2.33 5 2.66 5 3 C1.7 3 -1.6 3 -5 3 C-5 2.34 -5 1.68 -5 1 C-2 0 -2 0 0 0 Z " fill="#2DB84B" transform="translate(183,200)"/>
<path d="" fill="#000000" transform="translate(0,0)"/>
<path d="" fill="#000000" transform="translate(0,0)"/>
<path d="" fill="#000000" transform="translate(0,0)"/>
<path d="" fill="#000000" transform="translate(0,0)"/>
<path d="" fill="#000000" transform="translate(0,0)"/>
<path d="" fill="#000000" transform="translate(0,0)"/>
<path d="" fill="#000000" transform="translate(0,0)"/>
<path d="" fill="#000000" transform="translate(0,0)"/>
<path d="" fill="#000000" transform="translate(0,0)"/>
<path d="" fill="#000000" transform="translate(0,0)"/>
<path d="" fill="#000000" transform="translate(0,0)"/>
<path d="" fill="#000000" transform="translate(0,0)"/>
<path d="" fill="#000000" transform="translate(0,0)"/>
<path d="" fill="#000000" transform="translate(0,0)"/>
<path d="" fill="#000000" transform="translate(0,0)"/>
<path d="" fill="#000000" transform="translate(0,0)"/>
<path d="" fill="#000000" transform="translate(0,0)"/>
<path d="" fill="#000000" transform="translate(0,0)"/>
<path d="" fill="#000000" transform="translate(0,0)"/>
<path d="" fill="#000000" transform="translate(0,0)"/>
<path d="" fill="#000000" transform="translate(0,0)"/>
<path d="" fill="#000000" transform="translate(0,0)"/>
<path d="" fill="#000000" transform="translate(0,0)"/>
<path d="" fill="#000000" transform="translate(0,0)"/>
<path d="" fill="#000000" transform="translate(0,0)"/>
<path d="" fill="#000000" transform="translate(0,0)"/>
<path d="" fill="#000000" transform="translate(0,0)"/>
<path d="" fill="#000000" transform="translate(0,0)"/>
<path d="" fill="#000000" transform="translate(0,0)"/>
<path d="" fill="#000000" transform="translate(0,0)"/>
<path d="" fill="#000000" transform="translate(0,0)"/>
<path d="" fill="#000000" transform="translate(0,0)"/>
<path d="" fill="#000000" transform="translate(0,0)"/>
<path d="" fill="#000000" transform="translate(0,0)"/>
<path d="" fill="#000000" transform="translate(0,0)"/>
<path d="" fill="#000000" transform="translate(0,0)"/>
<path d="" fill="#000000" transform="translate(0,0)"/>
<path d="" fill="#000000" transform="translate(0,0)"/>
<path d="" fill="#000000" transform="translate(0,0)"/>
<path d="" fill="#000000" transform="translate(0,0)"/>
<path d="" fill="#000000" transform="translate(0,0)"/>
<path d="" fill="#000000" transform="translate(0,0)"/>
<path d="" fill="#000000" transform="translate(0,0)"/>
<path d="" fill="#000000" transform="translate(0,0)"/>
<path d="" fill="#000000" transform="translate(0,0)"/>
<path d="" fill="#000000" transform="translate(0,0)"/>
<path d="" fill="#000000" transform="translate(0,0)"/>
<path d="" fill="#000000" transform="translate(0,0)"/>
<path d="" fill="#000000" transform="translate(0,0)"/>
<path d="" fill="#000000" transform="translate(0,0)"/>
<path d="" fill="#000000" transform="translate(0,0)"/>
<path d="" fill="#000000" transform="translate(0,0)"/>
<path d="" fill="#000000" transform="translate(0,0)"/>
<path d="" fill="#000000" transform="translate(0,0)"/>
<path d="" fill="#000000" transform="translate(0,0)"/>
<path d="" fill="#000000" transform="translate(0,0)"/>
<path d="" fill="#000000" transform="translate(0,0)"/>
<path d="" fill="#000000" transform="translate(0,0)"/>
<path d="" fill="#000000" transform="translate(0,0)"/>
<path d="" fill="#000000" transform="translate(0,0)"/>
<path d="" fill="#000000" transform="translate(0,0)"/>
<path d="" fill="#000000" transform="translate(0,0)"/>
<path d="" fill="#000000" transform="translate(0,0)"/>
<path d="" fill="#000000" transform="translate(0,0)"/>
<path d="" fill="#000000" transform="translate(0,0)"/>
<path d="" fill="#000000" transform="translate(0,0)"/>
<path d="" fill="#000000" transform="translate(0,0)"/>
<path d="" fill="#000000" transform="translate(0,0)"/>
<path d="" fill="#000000" transform="translate(0,0)"/>
<path d="" fill="#000000" transform="translate(0,0)"/>
<path d="" fill="#000000" transform="translate(0,0)"/>
<path d="" fill="#000000" transform="translate(0,0)"/>
<path d="" fill="#000000" transform="translate(0,0)"/>
<path d="" fill="#000000" transform="translate(0,0)"/>
<path d="" fill="#000000" transform="translate(0,0)"/>
<path d="" fill="#000000" transform="translate(0,0)"/>
<path d="" fill="#000000" transform="translate(0,0)"/>
<path d="" fill="#000000" transform="translate(0,0)"/>
<path d="" fill="#000000" transform="translate(0,0)"/>
<path d="" fill="#000000" transform="translate(0,0)"/>
<path d="" fill="#000000" transform="translate(0,0)"/>
<path d="" fill="#000000" transform="translate(0,0)"/>
<path d="" fill="#000000" transform="translate(0,0)"/>
<path d="" fill="#000000" transform="translate(0,0)"/>
<path d="" fill="#000000" transform="translate(0,0)"/>
<path d="" fill="#000000" transform="translate(0,0)"/>
<path d="" fill="#000000" transform="translate(0,0)"/>
<path d="" fill="#000000" transform="translate(0,0)"/>
<path d="" fill="#000000" transform="translate(0,0)"/>
<path d="" fill="#000000" transform="translate(0,0)"/>
<path d="" fill="#000000" transform="translate(0,0)"/>
<path d="" fill="#000000" transform="translate(0,0)"/>
<path d="" fill="#000000" transform="translate(0,0)"/>
<path d="" fill="#000000" transform="translate(0,0)"/>
<path d="" fill="#000000" transform="translate(0,0)"/>
</svg>
